# xmcd
#
# Track frame offsets:
#	150
#	13782
#	28232
#	48182
#	62467
#	81500
#	96337
#	112005
#	124742
#	137832
#	155110
#	166007
#	182787
#	195375
#	214892
#
# Disc length: 3132 seconds
#
# Revision: 2
# Processed by: cddbd v1.5.1PL2 Copyright (c) Steve Scherf et al.
# Submitted via: audiograbber 1.83.01
#
DISCID=d30c3a0f
DTITLE=Kylie Harris - Let It Be Love
DYEAR=1995
DGENRE=Country
TTITLE0=Man With A Mission
TTITLE1=Let It Be Love
TTITLE2=Home
TTITLE3=Lost River
TTITLE4=True Colours
TTITLE5=Upside Of Down
TTITLE6=There's No Heart So Strong
TTITLE7=Wheel Of Fortune
TTITLE8=Tell Me Why
TTITLE9=To Know Him Is To Love Him
TTITLE10=Handyman's Dream
TTITLE11=Where've You Been
TTITLE12=Hand In Hand And Heart To Heart
TTITLE13=Wayfaring Stranger
TTITLE14=God's Green Earth
EXTD=Named "Country album of the year" in 1995. Kylie Harris was named "New Zea
EXTD=land's Rising Star" at the 1996 Clear Music and Entertainment awards. 
EXTT0=
EXTT1=
EXTT2=
EXTT3=
EXTT4=
EXTT5=
EXTT6=
EXTT7=
EXTT8=
EXTT9=
EXTT10=
EXTT11=
EXTT12=
EXTT13=
EXTT14=
PLAYORDER=
